# xmcd
#
# Track frame offsets: 
#        150
#        14640
#        26112
#        42097
#        53457
#        68870
#        86152
#        100262
#        113917
#        125139
#        136882
#        158409
#        175447
#
# Disc length: 4439 seconds
#
# Revision: 1
# Processed by: cddbd v1.5.2PL0 Copyright (c) Steve Scherf et al.
# Submitted via: ExactAudioCopy v0.95b4
#
DISCID=ae11550d
DTITLE=F5 - A Drug for All Seasons
DYEAR=2005
DGENRE=Metal
TTITLE0=Faded
TTITLE1=Dissidence
TTITLE2=Fall To Me
TTITLE3=A Drug For All Seasons
TTITLE4=Bleeding
TTITLE5=What I Am
TTITLE6=Dying On The Vine
TTITLE7=Hold Me Down
TTITLE8=Defacing
TTITLE9=X'd Out
TTITLE10=Look You In The Eyes
TTITLE11=Forte Sonata
TTITLE12=Data track
EXTD=
EXTT0=
EXTT1=
EXTT2=
EXTT3=
EXTT4=
EXTT5=
EXTT6=
EXTT7=
EXTT8=
EXTT9=
EXTT10=
EXTT11=
EXTT12=
PLAYORDER=
